<svg xmlns="http://www.w3.org/2000/svg" viewBox="0 0 128 128">
  <defs>
    <linearGradient id="g" x1="0" y1="0" x2="1" y2="1">
      <stop offset="0" stop-color="#0ea5e9"/>
      <stop offset="1" stop-color="#0c4a6e"/>
    </linearGradient>
  </defs>
  <rect width="128" height="128" rx="24" fill="url(#g)"/>
  <g fill="#fff">
    <path d="M64 22c-12.15 0-22 9.85-22 22s9.85 22 22 22c4.8 0 9.25-1.55 12.86-4.18C71.96 72.24 59.34 82 44 82c-3.39 0-6.69-.47-9.83-1.36C41.02 94.32 52.01 102 64 102c20.33 0 36.8-16.47 36.8-36.8C100.8 41.67 84.33 25.2 64 25.2z"/>
    <path d="M88 54l4.51 9.15 10.1 1.47-7.3 7.11 1.72 10.04L88 77.2l-9.03 4.57 1.72-10.04-7.3-7.11 10.1-1.47z"/>
  </g>
</svg>